<svg width="221" height="63" viewBox="0 0 221 63" fill="none" xmlns="http://www.w3.org/2000/svg">
<path d="M31.5 0L38.5722 21.766H61.4583L42.943 35.2181L50.0152 56.984L31.5 43.5319L12.9848 56.984L20.057 35.2181L1.54172 21.766H24.4278L31.5 0Z" fill="#FF0000"/>
<path d="M78.88 18.8V44H81.94V18.8H78.88ZM91.84 18.8L81.004 30.68L92.38 44H96.16L84.712 30.608L95.62 18.8H91.84ZM101.647 36.44H114.967L113.887 33.56H102.727L101.647 36.44ZM108.235 24.488L112.555 34.64L112.843 35.36L116.515 44H119.935L108.235 17.54L96.5355 44H99.9555L103.699 35.144L103.987 34.496L108.235 24.488ZM127.501 31.58L136.141 44H139.921L130.921 31.58H127.501ZM123.001 18.8V44H126.061V18.8H123.001ZM124.693 21.5H129.841C130.921 21.5 131.869 21.692 132.685 22.076C133.525 22.46 134.173 23.012 134.629 23.732C135.109 24.452 135.349 25.328 135.349 26.36C135.349 27.392 135.109 28.268 134.629 28.988C134.173 29.708 133.525 30.26 132.685 30.644C131.869 31.028 130.921 31.22 129.841 31.22H124.693V33.92H129.841C131.473 33.92 132.925 33.62 134.197 33.02C135.493 32.396 136.513 31.52 137.257 30.392C138.025 29.24 138.409 27.896 138.409 26.36C138.409 24.8 138.025 23.456 137.257 22.328C136.513 21.2 135.493 20.336 134.197 19.736C132.925 19.112 131.473 18.8 129.841 18.8H124.693V21.5ZM145.558 36.44H158.878L157.798 33.56H146.638L145.558 36.44ZM152.146 24.488L156.466 34.64L156.754 35.36L160.426 44H163.846L152.146 17.54L140.446 44H143.866L147.61 35.144L147.898 34.496L152.146 24.488ZM169.323 30.68H173.391C174.903 30.68 176.211 30.464 177.315 30.032C178.443 29.6 179.319 28.964 179.943 28.124C180.567 27.284 180.879 26.276 180.879 25.1C180.879 23.66 180.567 22.484 179.943 21.572C179.319 20.636 178.443 19.94 177.315 19.484C176.211 19.028 174.903 18.8 173.391 18.8H166.911V44H173.751C175.383 44 176.835 43.736 178.107 43.208C179.403 42.656 180.423 41.84 181.167 40.76C181.935 39.656 182.319 38.276 182.319 36.62C182.319 35.468 182.103 34.472 181.671 33.632C181.239 32.792 180.627 32.108 179.835 31.58C179.067 31.028 178.167 30.62 177.135 30.356C176.103 30.092 174.975 29.96 173.751 29.96H169.323V31.652H173.751C174.567 31.652 175.311 31.76 175.983 31.976C176.655 32.168 177.231 32.468 177.711 32.876C178.215 33.284 178.599 33.788 178.863 34.388C179.127 34.988 179.259 35.672 179.259 36.44C179.259 37.472 179.019 38.348 178.539 39.068C178.083 39.788 177.435 40.34 176.595 40.724C175.779 41.108 174.831 41.3 173.751 41.3H169.971V21.5H173.391C174.663 21.5 175.719 21.836 176.559 22.508C177.399 23.156 177.819 24.08 177.819 25.28C177.819 26.072 177.627 26.744 177.243 27.296C176.859 27.848 176.331 28.268 175.659 28.556C174.987 28.844 174.231 28.988 173.391 28.988H169.323V30.68ZM188.677 44H201.385V41.12H188.677V44ZM188.677 21.68H201.385V18.8H188.677V21.68ZM188.677 31.76H200.665V28.88H188.677V31.76ZM186.985 18.8V44H190.045V18.8H186.985ZM206.778 18.8V44H219.738V41.12H209.838V18.8H206.778Z" fill="white"/>
</svg>
